M48
; DRILL file {KiCad (5.1.4-0-10_14)} date Tuesday, 27 August 2019 at 23:33:51
; FORMAT={-:-/ absolute / inch / decimal}
; #@! TF.CreationDate,2019-08-27T23:33:51+02:00
; #@! TF.GenerationSoftware,Kicad,Pcbnew,(5.1.4-0-10_14)
; #@! TF.FileFunction,Plated,1,2,PTH
FMAT,2
INCH
T1C0.0354
T2C0.0400
T3C0.0571
%
G90
G05
T1
X11.8661Y-11.0339
X11.8661Y-11.1339
X11.8661Y-11.6402
X11.8661Y-11.7402
T2
X13.2546Y-10.9646
X13.2546Y-11.0646
X13.2546Y-11.1646
X13.2546Y-11.2646
X13.2546Y-11.3646
X13.2546Y-11.4646
X13.2546Y-11.5646
X13.2546Y-11.6646
X13.3546Y-10.9646
X13.3546Y-11.0646
X13.3546Y-11.1646
X13.3546Y-11.2646
X13.3546Y-11.3646
X13.3546Y-11.4646
X13.3546Y-11.5646
X13.3546Y-11.6646
X17.0604Y-10.9646
X17.0604Y-11.0646
X17.0604Y-11.1646
X17.0604Y-11.2646
X17.0604Y-11.3646
X17.0604Y-11.4646
X17.0604Y-11.5646
X5.2822Y-11.2646
X17.0604Y-11.6646
X17.1604Y-10.9646
X17.1604Y-11.0646
X17.1604Y-11.1646
X17.1604Y-11.2646
X17.1604Y-11.3646
X17.1604Y-11.4646
X17.1604Y-11.5646
X5.3822Y-11.3646
X8.1365Y-10.9646
X8.1365Y-11.0646
X8.1365Y-11.1646
X8.1365Y-11.2646
X5.2822Y-10.9646
X8.1365Y-11.3646
X8.1365Y-11.4646
X8.1365Y-11.5646
X8.1365Y-11.6646
X5.2822Y-11.6646
X5.2822Y-11.1646
X5.3822Y-11.0646
X5.3822Y-11.1646
X5.3822Y-11.6646
X17.1604Y-11.6646
X5.2822Y-11.0646
X5.3822Y-11.2646
X5.3822Y-11.4646
X8.2365Y-10.9646
X8.2365Y-11.0646
X5.2822Y-11.4646
X8.2365Y-11.1646
X5.2822Y-11.3646
X8.2365Y-11.2646
X8.2365Y-11.6646
X5.3822Y-11.5646
X8.2365Y-11.5646
X5.3822Y-10.9646
X8.2365Y-11.4646
X5.2822Y-11.5646
X8.2365Y-11.3646
X4.3307Y-10.9646
X4.3307Y-11.0646
X4.3307Y-11.1646
X4.3307Y-11.2646
X4.3307Y-11.3646
X4.3307Y-11.4646
X4.3307Y-11.5646
X4.3307Y-11.6646
X4.4307Y-10.9646
X4.4307Y-11.0646
X4.4307Y-11.1646
X4.4307Y-11.2646
X4.4307Y-11.3646
X4.4307Y-11.4646
X4.4307Y-11.5646
X4.4307Y-11.6646
X9.0879Y-10.9646
X9.0879Y-11.0646
X9.0879Y-11.1646
X9.0879Y-11.2646
X9.0879Y-11.3646
X9.0879Y-11.4646
X9.0879Y-11.5646
X9.0879Y-11.6646
X9.1879Y-10.9646
X9.1879Y-11.0646
X9.1879Y-11.1646
X9.1879Y-11.2646
X9.1879Y-11.3646
X9.1879Y-11.4646
X9.1879Y-11.5646
X9.1879Y-11.6646
X10.0394Y-10.9646
X12.3031Y-11.5646
X12.3031Y-10.9646
X12.3031Y-11.0646
X12.3031Y-11.1646
X12.3031Y-11.2646
X12.3031Y-11.3646
X12.3031Y-11.4646
X12.3031Y-11.6646
X12.4031Y-10.9646
X12.4031Y-11.0646
X12.4031Y-11.1646
X12.4031Y-11.2646
X12.4031Y-11.3646
X12.4031Y-11.4646
X12.4031Y-11.5646
X12.4031Y-11.6646
X14.206Y-10.9646
X14.206Y-11.0646
X14.206Y-11.1646
X14.206Y-11.2646
X14.206Y-11.3646
X14.206Y-11.4646
X14.206Y-11.5646
X14.206Y-11.6646
X14.306Y-10.9646
X14.306Y-11.0646
X14.306Y-11.1646
X14.306Y-11.2646
X14.306Y-11.3646
X14.306Y-11.4646
X14.306Y-11.5646
X14.306Y-11.6646
X7.185Y-10.9646
X7.185Y-11.0646
X7.185Y-11.1646
X7.185Y-11.2646
X7.185Y-11.3646
X7.185Y-11.4646
X7.185Y-11.5646
X7.185Y-11.6646
X7.285Y-10.9646
X7.285Y-11.0646
X7.285Y-11.1646
X7.285Y-11.2646
X7.285Y-11.3646
X7.285Y-11.4646
X7.285Y-11.5646
X10.0394Y-11.0646
X10.0394Y-11.1646
X10.0394Y-11.2646
X10.0394Y-11.3646
X10.0394Y-11.4646
X10.0394Y-11.5646
X10.0394Y-11.6646
X10.1394Y-10.9646
X10.1394Y-11.0646
X10.1394Y-11.1646
X10.1394Y-11.2646
X10.1394Y-11.3646
X10.1394Y-11.4646
X10.1394Y-11.5646
X10.1394Y-11.6646
X6.2336Y-10.9646
X6.2336Y-11.0646
X6.2336Y-11.1646
X6.2336Y-11.2646
X6.2336Y-11.3646
X6.2336Y-11.4646
X6.2336Y-11.5646
X6.2336Y-11.6646
X6.3336Y-10.9646
X6.3336Y-11.0646
X7.285Y-11.6646
X6.3336Y-11.1646
X6.3336Y-11.2646
X6.3336Y-11.3646
X6.3336Y-11.4646
X6.3336Y-11.5646
X6.3336Y-11.6646
X15.1575Y-10.9646
X15.1575Y-11.0646
X15.1575Y-11.1646
X15.1575Y-11.2646
X15.1575Y-11.3646
X15.1575Y-11.4646
X15.1575Y-11.5646
X15.1575Y-11.6646
X15.2575Y-10.9646
X15.2575Y-11.0646
X15.2575Y-11.1646
X15.2575Y-11.2646
X15.2575Y-11.3646
X15.2575Y-11.4646
X15.2575Y-11.5646
X15.2575Y-11.6646
X18.0118Y-10.9646
X18.0118Y-11.0646
X18.0118Y-11.1646
X18.0118Y-11.2646
X18.0118Y-11.3646
X18.0118Y-11.4646
X18.0118Y-11.5646
X18.0118Y-11.6646
X18.1118Y-10.9646
X18.1118Y-11.0646
X18.1118Y-11.1646
X18.1118Y-11.2646
X18.1118Y-11.3646
X18.1118Y-11.4646
X18.1118Y-11.5646
X18.1118Y-11.6646
X16.1089Y-10.9646
X16.1089Y-11.0646
X16.1089Y-11.1646
X16.1089Y-11.2646
X16.1089Y-11.3646
X16.1089Y-11.4646
X16.1089Y-11.5646
X16.1089Y-11.6646
X16.2089Y-10.9646
X16.2089Y-11.0646
X16.2089Y-11.1646
X16.2089Y-11.2646
X16.2089Y-11.3646
X16.2089Y-11.4646
X16.2089Y-11.5646
X16.2089Y-11.6646
T3
X11.3976Y-11.278
X11.3976Y-11.478
X11.2205Y-11.7898
X11.2205Y-11.9898
X3.7189Y-11.1417
X3.9189Y-11.1417
X18.522Y-10.8268
X18.722Y-10.8268
X3.7095Y-10.8268
X3.9095Y-10.8268
X18.522Y-11.4567
X18.722Y-11.4567
X18.522Y-11.1437
X18.722Y-11.1437
X11.0433Y-10.7661
X11.0433Y-10.9661
X3.7115Y-11.7717
X18.522Y-11.7717
X18.722Y-11.7717
X3.9115Y-11.7717
X3.7115Y-11.4567
X3.9115Y-11.4567
X11.0433Y-11.278
X11.3976Y-10.7661
X11.3976Y-10.9661
X11.0433Y-11.478
T0
M30
