M48
; DRILL file {KiCad (5.1.4-0-10_14)} date Tuesday, 27 August 2019 at 23:33:51
; FORMAT={-:-/ absolute / inch / decimal}
; #@! TF.CreationDate,2019-08-27T23:33:51+02:00
; #@! TF.GenerationSoftware,Kicad,Pcbnew,(5.1.4-0-10_14)
; #@! TF.FileFunction,NonPlated,1,2,NPTH
FMAT,2
INCH
T1C0.1260
%
G90
G05
T1
X6.9685Y-12.0236
X5.2559Y-10.6142
X6.9685Y-10.6142
X5.2559Y-12.0236
X8.6811Y-10.6142
X17.1801Y-12.0236
X13.7451Y-10.6142
X8.6811Y-12.0236
X17.1801Y-10.6142
X12.0276Y-10.6142
X15.4626Y-10.6142
X18.9134Y-10.6142
X15.4626Y-12.0236
X3.5276Y-12.0236
X13.7451Y-12.0236
X10.3937Y-10.6142
X10.3937Y-12.0236
X12.0276Y-12.0236
X18.9134Y-12.0236
X3.5276Y-10.6142
T0
M30
